Coordinates
version=1
nRows=22
nColumns=24
inDegrees=yes

Units are S.I. units (second, meters, Newtons, ...)
Angles are in degrees.

endheader
time	pelvis_tilt	pelvis_list	pelvis_rotation	pelvis_tx	pelvis_ty	pelvis_tz	hip_flexion_r	hip_adduction_r	hip_rotation_r	knee_angle_r	ankle_angle_r	subtalar_angle_r	mtp_angle_r	hip_flexion_l	hip_adduction_l	hip_rotation_l	knee_angle_l	ankle_angle_l	subtalar_angle_l	mtp_angle_l	lumbar_extension	lumbar_bending	lumbar_rotation
      1.88783333	      4.36672516	      2.55190965	     -4.36821399	      1.46869070	      1.02894937	      0.24048440	     11.09949765	     -6.40192489	     -7.34908941	    -53.96608899	      9.25110145	    -17.28667091	     -6.69604770	      5.55048628	      8.83082729	      2.51905730	    -20.68279695	     11.53404941	    -13.52650249	     -1.92098792	     -2.84818884	     -4.54820989	      3.00520504
      1.89200000	      4.32588894	      2.47606250	     -4.25792419	      1.47280827	      1.02929723	      0.24008826	     11.69270719	     -6.24317862	     -7.29792283	    -53.38283451	      9.45064605	    -17.33250300	     -6.71826910	      5.22943518	      8.78358316	      2.64818423	    -20.48641522	     11.63055209	    -13.49508622	     -1.93091001	     -2.87782763	     -4.45239888	      2.92746392
      1.89616667	      4.26272271	      2.38626669	     -4.10731589	      1.47689208	      1.02959412	      0.23964032	     12.28776618	     -6.07492814	     -7.28786037	    -52.75735485	      9.57390600	    -17.35151457	     -6.81217033	      4.94877820	      8.72348370	      2.81829193	    -20.32949206	     11.73032773	    -13.48310752	     -1.97421589	     -2.90970459	     -4.34066271	      2.58957694
      1.90033333	      4.22556195	      2.30031458	     -3.98883901	      1.48103427	      1.02989283	      0.23925130	     12.84537062	     -5.90604145	     -7.24066090	    -52.10984508	      9.70997069	    -17.33907905	     -6.83250793	      4.62815998	      8.66501897	      2.95933279	    -20.14427519	     11.83648523	    -13.46143209	     -1.98371763	     -2.93251854	     -4.21848401	      2.50823592
      1.90450000	      4.16147389	      2.21794368	     -3.86633837	      1.48511294	      1.03011700	      0.23887028	     13.42720886	     -5.73706729	     -7.18580126	    -51.44386691	      9.81292591	    -17.29747795	     -6.85207297	      4.34713264	      8.60932734	      3.11006049	    -19.97451253	     11.93865773	    -13.45731711	     -1.99459489	     -2.94150066	     -4.10079173	      2.36892473
      1.90866667	      4.08324970	      2.13062467	     -3.74418709	      1.48923036	      1.03029229	      0.23850069	     14.01023273	     -5.56093056	     -7.12795833	    -50.74839311	      9.87863438	    -17.23703235	     -6.86971038	      4.08591117	      8.54646884	      3.25531581	    -19.81503036	     12.03789437	    -13.47094851	     -2.00579455	     -2.93398512	     -3.98418655	      2.20850376
      1.91283333	      4.00764508	      2.05263446	     -3.60591945	      1.49328856	      1.03043311	      0.23813098	     14.58197803	     -5.39544563	     -7.07310639	    -50.03309742	      9.90011496	    -17.17490099	     -6.91407441	      3.83130315	      8.49878834	      3.45099747	    -19.67174527	     12.10613988	    -13.52108075	     -2.04559981	     -2.96092896	     -3.89931066	      1.84990262
      1.91700000	      3.92233589	      1.96829312	     -3.47827184	      1.49736345	      1.03053516	      0.23778769	     15.15248194	     -5.21976794	     -7.00322286	    -49.29508696	      9.93537720	    -17.05057197	     -6.92678818	      3.59347554	      8.43872680	      3.61070531	    -19.53786246	     12.20240679	    -13.54768446	     -2.06092961	     -2.95456269	     -3.78411618	      1.76017719
      1.92116667	      3.83137239	      1.88544104	     -3.35679610	      1.50140989	      1.03058766	      0.23746845	     15.72146062	     -5.04256561	     -6.92093704	    -48.53681580	      9.93412294	    -16.92460225	     -6.93673272	      3.36776249	      8.37995178	      3.76956081	    -19.40758940	     12.28708611	    -13.59862593	     -2.07931782	     -2.94191713	     -3.67618890	      1.59577302
      1.92533333	      3.75883347	      1.80398818	     -3.23211699	      1.50551317	      1.03063636	      0.23716520	     16.25440339	     -4.86615300	     -6.82955441	    -47.76301312	      9.91410252	    -16.77479928	     -6.94015308	      3.11482788	      8.32428217	      3.94166696	    -19.27665157	     12.37478251	    -13.66299726	     -2.09735948	     -2.93910276	     -3.57171649	      1.43822115
      1.92950000	      3.66752140	      1.72796566	     -3.10607103	      1.50959026	      1.03063787	      0.23687550	     16.79448259	     -4.69706041	     -6.74153438	    -46.96028368	      9.87849584	    -16.60226283	     -6.93711271	      2.88938025	      8.27373430	      4.12441651	    -19.15189284	     12.45510441	    -13.73652036	     -2.11375309	     -2.91967723	     -3.47476376	      1.30054078
      1.93366667	      3.56851972	      1.64449114	     -2.98641314	      1.51364102	      1.03059002	      0.23660411	     17.33178305	     -4.51622529	     -6.64108695	    -46.13522156	      9.81874740	    -16.41586266	     -6.92799917	      2.68605573	      8.21408804	      4.28868767	    -19.05135581	     12.53623465	    -13.82652772	     -2.12902031	     -2.89472906	     -3.36900676	      1.15197251
      1.93783333	      3.48172825	      1.56630931	     -2.84400580	      1.51767144	      1.03052887	      0.23632592	     17.84744531	     -4.34664914	     -6.55248577	    -45.29816315	      9.73076203	    -16.22740906	     -6.91285157	      2.46905473	      8.16090956	      4.48868730	    -18.94953284	     12.61649791	    -13.91278688	     -2.14336906	     -2.88778767	     -3.27241200	      1.00523320
      1.94200000	      3.38640165	      1.48358695	     -2.71099055	      1.52174577	      1.03044579	      0.23607269	     18.35016423	     -4.16869425	     -6.44877887	    -44.43296105	      9.62581959	    -16.01872587	     -6.89219300	      2.26030939	      8.10185552	      4.67893787	    -18.85156579	     12.69252610	    -14.01809995	     -2.15700504	     -2.86381878	     -3.16955492	      0.86570215
      1.94616667	      3.31718851	      1.41841048	     -2.59824730	      1.52583069	      1.03035557	      0.23586553	     18.82057000	     -4.00990932	     -6.33041900	    -43.56080967	      9.51067410	    -15.78715464	     -6.87672167	      2.01830057	      8.05945114	      4.84310405	    -18.73256139	     12.78649611	    -14.09298273	     -2.16337990	     -2.84598766	     -3.09630592	      0.77741197
      1.95033333	      3.18904817	      1.35909150	     -2.43248986	      1.52984260	      1.03013924	      0.23558743	     19.34169261	     -3.86800149	     -6.24582476	    -42.66890437	      9.36916968	    -15.60112895	     -6.79812101	      1.85986410	      8.03474238	      5.13095734	    -18.65404265	     12.78843135	    -14.34400701	     -2.19517246	     -2.80416801	     -3.02687232	      0.49204857
      1.95450000	      3.11375671	      1.28425249	     -2.30863736	      1.53393446	      1.03000675	      0.23539802	     19.78498506	     -3.70326859	     -6.13704498	    -41.75216676	      9.23427688	    -15.34067440	     -6.77568534	      1.63440310	      7.97630568	      5.28473254	    -18.55565904	     12.88871937	    -14.40533591	     -2.20114184	     -2.79919113	     -2.93895652	      0.45227325
      1.95866667	      3.02081603	      1.20678418	     -2.12617028	      1.53795933	      1.02980515	      0.23512439	     20.22883893	     -3.55148815	     -6.06559624	    -40.81125635	      9.07794571	    -15.11728664	     -6.73066353	      1.45401145	      7.92361775	      5.53172597	    -18.51390990	     12.96151370	    -14.53947922	     -2.21264420	     -2.78649440	     -2.82982733	      0.33383854
      1.96283333	      2.93185613	      1.14677820	     -1.99756620	      1.54205027	      1.02958509	      0.23495455	     20.66807647	     -3.40969950	     -5.96700539	    -39.86825312	      8.91484104	    -14.87930228	     -6.69607654	      1.24427514	      7.88185216	      5.71221186	    -18.41782416	     13.04564549	    -14.65020782	     -2.22105400	     -2.77286910	     -2.77474958	      0.23998840
      1.96700000	      2.84034044	      1.08811437	     -1.80705970	      1.54609839	      1.02935888	      0.23468607	     21.07843584	     -3.28426921	     -5.89259531	    -38.88241665	      8.71392390	    -14.70810433	     -6.56792430	      1.04623642	      7.85658900	      6.04211923	    -18.34147010	     13.04110602	    -14.92984913	     -2.25338113	     -2.74620989	     -2.70837480	     -0.03129035
      1.97116667	      2.75979972	      1.04224529	     -1.65359527	      1.55017220	      1.02909314	      0.23448813	     21.48254729	     -3.17125628	     -5.80132696	    -37.91895439	      8.54677140	    -14.42451622	     -6.53508646	      0.84353421	      7.82610862	      6.21947329	    -18.27320965	     13.14849719	    -14.98750208	     -2.25874442	     -2.72828500	     -2.65273263	     -0.06670452
      1.97533333	      2.67299339	      0.99079319	     -1.46748209	      1.55425415	      1.02881548	      0.23425843	     21.86608516	     -3.06244306	     -5.74357160	    -36.91316974	      8.35804605	    -14.25828136	     -6.37594769	      0.64027429	      7.80234619	      6.53551695	    -18.19923681	     13.15297809	    -15.25589820	     -2.29510587	     -2.72852314	     -2.59748337	     -0.27890361
